<svg width="496" height="104" viewBox="0 0 496 104" fill="none" xmlns="http://www.w3.org/2000/svg">
<path d="M183.8 41.1C185.933 41.1 187.833 41.55 189.5 42.45C191.167 43.3167 192.483 44.6333 193.45 46.4C194.417 48.1667 194.9 50.3167 194.9 52.85V69H190.4V53.5C190.4 50.7667 189.717 48.6833 188.35 47.25C187.017 45.7833 185.2 45.05 182.9 45.05C180.533 45.05 178.65 45.8167 177.25 47.35C175.85 48.85 175.15 51.0333 175.15 53.9V69H170.65V53.5C170.65 50.7667 169.967 48.6833 168.6 47.25C167.267 45.7833 165.45 45.05 163.15 45.05C160.783 45.05 158.9 45.8167 157.5 47.35C156.1 48.85 155.4 51.0333 155.4 53.9V69H150.85V41.6H155.4V45.55C156.3 44.1167 157.5 43.0167 159 42.25C160.533 41.4833 162.217 41.1 164.05 41.1C166.35 41.1 168.383 41.6167 170.15 42.65C171.917 43.6833 173.233 45.2 174.1 47.2C174.867 45.2667 176.133 43.7667 177.9 42.7C179.667 41.6333 181.633 41.1 183.8 41.1ZM200.664 55.2C200.664 52.4 201.23 49.95 202.364 47.85C203.497 45.7167 205.047 44.0667 207.014 42.9C209.014 41.7333 211.23 41.15 213.664 41.15C216.064 41.15 218.147 41.6667 219.914 42.7C221.68 43.7333 222.997 45.0333 223.864 46.6V41.6H228.464V69H223.864V63.9C222.964 65.5 221.614 66.8333 219.814 67.9C218.047 68.9333 215.98 69.45 213.614 69.45C211.18 69.45 208.98 68.85 207.014 67.65C205.047 66.45 203.497 64.7667 202.364 62.6C201.23 60.4333 200.664 57.9667 200.664 55.2ZM223.864 55.25C223.864 53.1833 223.447 51.3833 222.614 49.85C221.78 48.3167 220.647 47.15 219.214 46.35C217.814 45.5167 216.264 45.1 214.564 45.1C212.864 45.1 211.314 45.5 209.914 46.3C208.514 47.1 207.397 48.2667 206.564 49.8C205.73 51.3333 205.314 53.1333 205.314 55.2C205.314 57.3 205.73 59.1333 206.564 60.7C207.397 62.2333 208.514 63.4167 209.914 64.25C211.314 65.05 212.864 65.45 214.564 65.45C216.264 65.45 217.814 65.05 219.214 64.25C220.647 63.4167 221.78 62.2333 222.614 60.7C223.447 59.1333 223.864 57.3167 223.864 55.25ZM247.453 41.15C249.819 41.15 251.886 41.6667 253.653 42.7C255.453 43.7333 256.786 45.0333 257.653 46.6V41.6H262.253V69.6C262.253 72.1 261.719 74.3167 260.653 76.25C259.586 78.2167 258.053 79.75 256.053 80.85C254.086 81.95 251.786 82.5 249.153 82.5C245.553 82.5 242.553 81.65 240.153 79.95C237.753 78.25 236.336 75.9333 235.903 73H240.403C240.903 74.6667 241.936 76 243.503 77C245.069 78.0333 246.953 78.55 249.153 78.55C251.653 78.55 253.686 77.7667 255.253 76.2C256.853 74.6333 257.653 72.4333 257.653 69.6V63.85C256.753 65.45 255.419 66.7833 253.653 67.85C251.886 68.9167 249.819 69.45 247.453 69.45C245.019 69.45 242.803 68.85 240.803 67.65C238.836 66.45 237.286 64.7667 236.153 62.6C235.019 60.4333 234.453 57.9667 234.453 55.2C234.453 52.4 235.019 49.95 236.153 47.85C237.286 45.7167 238.836 44.0667 240.803 42.9C242.803 41.7333 245.019 41.15 247.453 41.15ZM257.653 55.25C257.653 53.1833 257.236 51.3833 256.403 49.85C255.569 48.3167 254.436 47.15 253.003 46.35C251.603 45.5167 250.053 45.1 248.353 45.1C246.653 45.1 245.103 45.5 243.703 46.3C242.303 47.1 241.186 48.2667 240.353 49.8C239.519 51.3333 239.103 53.1333 239.103 55.2C239.103 57.3 239.519 59.1333 240.353 60.7C241.186 62.2333 242.303 63.4167 243.703 64.25C245.103 65.05 246.653 65.45 248.353 65.45C250.053 65.45 251.603 65.05 253.003 64.25C254.436 63.4167 255.569 62.2333 256.403 60.7C257.236 59.1333 257.653 57.3167 257.653 55.25ZM268.242 55.2C268.242 52.4 268.808 49.95 269.942 47.85C271.075 45.7167 272.625 44.0667 274.592 42.9C276.592 41.7333 278.808 41.15 281.242 41.15C283.642 41.15 285.725 41.6667 287.492 42.7C289.258 43.7333 290.575 45.0333 291.442 46.6V41.6H296.042V69H291.442V63.9C290.542 65.5 289.192 66.8333 287.392 67.9C285.625 68.9333 283.558 69.45 281.192 69.45C278.758 69.45 276.558 68.85 274.592 67.65C272.625 66.45 271.075 64.7667 269.942 62.6C268.808 60.4333 268.242 57.9667 268.242 55.2ZM291.442 55.25C291.442 53.1833 291.025 51.3833 290.192 49.85C289.358 48.3167 288.225 47.15 286.792 46.35C285.392 45.5167 283.842 45.1 282.142 45.1C280.442 45.1 278.892 45.5 277.492 46.3C276.092 47.1 274.975 48.2667 274.142 49.8C273.308 51.3333 272.892 53.1333 272.892 55.2C272.892 57.3 273.308 59.1333 274.142 60.7C274.975 62.2333 276.092 63.4167 277.492 64.25C278.892 65.05 280.442 65.45 282.142 65.45C283.842 65.45 285.392 65.05 286.792 64.25C288.225 63.4167 289.358 62.2333 290.192 60.7C291.025 59.1333 291.442 57.3167 291.442 55.25ZM317.081 41.1C320.414 41.1 323.114 42.1167 325.181 44.15C327.248 46.15 328.281 49.05 328.281 52.85V69H323.781V53.5C323.781 50.7667 323.098 48.6833 321.731 47.25C320.364 45.7833 318.498 45.05 316.131 45.05C313.731 45.05 311.814 45.8 310.381 47.3C308.981 48.8 308.281 50.9833 308.281 53.85V69H303.731V41.6H308.281V45.5C309.181 44.1 310.398 43.0167 311.931 42.25C313.498 41.4833 315.214 41.1 317.081 41.1ZM360.713 54.25C360.713 55.1167 360.663 56.0333 360.563 57H338.663C338.83 59.7 339.747 61.8167 341.413 63.35C343.113 64.85 345.163 65.6 347.563 65.6C349.53 65.6 351.163 65.15 352.463 64.25C353.797 63.3167 354.73 62.0833 355.263 60.55H360.163C359.43 63.1833 357.963 65.3333 355.763 67C353.563 68.6333 350.83 69.45 347.563 69.45C344.963 69.45 342.63 68.8667 340.563 67.7C338.53 66.5333 336.93 64.8833 335.763 62.75C334.597 60.5833 334.013 58.0833 334.013 55.25C334.013 52.4167 334.58 49.9333 335.713 47.8C336.847 45.6667 338.43 44.0333 340.463 42.9C342.53 41.7333 344.897 41.15 347.563 41.15C350.163 41.15 352.463 41.7167 354.463 42.85C356.463 43.9833 357.997 45.55 359.063 47.55C360.163 49.5167 360.713 51.75 360.713 54.25ZM356.013 53.3C356.013 51.5667 355.63 50.0833 354.863 48.85C354.097 47.5833 353.047 46.6333 351.713 46C350.413 45.3333 348.963 45 347.363 45C345.063 45 343.097 45.7333 341.463 47.2C339.863 48.6667 338.947 50.7 338.713 53.3H356.013ZM370.119 65.25H383.569V69H364.919V65.25L378.219 45.3H365.019V41.6H383.469V45.3L370.119 65.25ZM400.623 45.35H394.873V69H390.323V45.35H386.773V41.6H390.323V39.65C390.323 36.5833 391.106 34.35 392.673 32.95C394.273 31.5167 396.823 30.8 400.323 30.8V34.6C398.323 34.6 396.906 35 396.073 35.8C395.273 36.5667 394.873 37.85 394.873 39.65V41.6H400.623V45.35ZM407.378 69.3C406.511 69.3 405.778 69 405.178 68.4C404.578 67.8 404.278 67.0667 404.278 66.2C404.278 65.3333 404.578 64.6 405.178 64C405.778 63.4 406.511 63.1 407.378 63.1C408.211 63.1 408.911 63.4 409.478 64C410.078 64.6 410.378 65.3333 410.378 66.2C410.378 67.0667 410.078 67.8 409.478 68.4C408.911 69 408.211 69.3 407.378 69.3ZM449.376 41.1C451.51 41.1 453.41 41.55 455.076 42.45C456.743 43.3167 458.06 44.6333 459.026 46.4C459.993 48.1667 460.476 50.3167 460.476 52.85V69H455.976V53.5C455.976 50.7667 455.293 48.6833 453.926 47.25C452.593 45.7833 450.776 45.05 448.476 45.05C446.11 45.05 444.226 45.8167 442.826 47.35C441.426 48.85 440.726 51.0333 440.726 53.9V69H436.226V53.5C436.226 50.7667 435.543 48.6833 434.176 47.25C432.843 45.7833 431.026 45.05 428.726 45.05C426.36 45.05 424.476 45.8167 423.076 47.35C421.676 48.85 420.976 51.0333 420.976 53.9V69H416.426V41.6H420.976V45.55C421.876 44.1167 423.076 43.0167 424.576 42.25C426.11 41.4833 427.793 41.1 429.626 41.1C431.926 41.1 433.96 41.6167 435.726 42.65C437.493 43.6833 438.81 45.2 439.676 47.2C440.443 45.2667 441.71 43.7667 443.476 42.7C445.243 41.6333 447.21 41.1 449.376 41.1ZM492.94 54.25C492.94 55.1167 492.89 56.0333 492.79 57H470.89C471.057 59.7 471.973 61.8167 473.64 63.35C475.34 64.85 477.39 65.6 479.79 65.6C481.757 65.6 483.39 65.15 484.69 64.25C486.023 63.3167 486.957 62.0833 487.49 60.55H492.39C491.657 63.1833 490.19 65.3333 487.99 67C485.79 68.6333 483.057 69.45 479.79 69.45C477.19 69.45 474.857 68.8667 472.79 67.7C470.757 66.5333 469.157 64.8833 467.99 62.75C466.823 60.5833 466.24 58.0833 466.24 55.25C466.24 52.4167 466.807 49.9333 467.94 47.8C469.073 45.6667 470.657 44.0333 472.69 42.9C474.757 41.7333 477.123 41.15 479.79 41.15C482.39 41.15 484.69 41.7167 486.69 42.85C488.69 43.9833 490.223 45.55 491.29 47.55C492.39 49.5167 492.94 51.75 492.94 54.25ZM488.24 53.3C488.24 51.5667 487.857 50.0833 487.09 48.85C486.323 47.5833 485.273 46.6333 483.94 46C482.64 45.3333 481.19 45 479.59 45C477.29 45 475.323 45.7333 473.69 47.2C472.09 48.6667 471.173 50.7 470.94 53.3H488.24Z" fill="#101D42"/>
<path d="M29.5647 82.5939L2 52" stroke="#101D42" stroke-width="2.5" stroke-miterlimit="10" stroke-linecap="square"/>
<path d="M2 52.0001L29.5647 21.4061" stroke="#101D42" stroke-width="2.5" stroke-miterlimit="10" stroke-linecap="square"/>
<path d="M94.4353 21.4061L122 52.0001" stroke="#101D42" stroke-width="2.5" stroke-miterlimit="10" stroke-linecap="square"/>
<path d="M122 52L94.4353 82.5939" stroke="#101D42" stroke-width="2.5" stroke-miterlimit="10" stroke-linecap="square"/>
<path d="M38.1878 102L87.5016 2" stroke="#101D42" stroke-width="2.5" stroke-miterlimit="10" stroke-linecap="square"/>
</svg>
